{"title":"The Zero Theorem [2013] (No Cinavia) 1080p","uid":11821932,"size":4282207511,"categoryP":"video","categoryS":"hd___movies","magnet":"?xt=urn:btih:67c5005ef5a9a588eb8997dbd5e985b6361defbe&amp;dn=The+Zero+Theorem+%5B2013%5D+%28No+Cinavia%29+1080p&amp;tr=udp%3A%2F%2Ftracker.openbittorrent.com%3A80&amp;tr=udp%3A%2F%2Fopen.demonii.com%3A1337&amp;tr=udp%3A%2F%2Ftracker.coppersurfer.tk%3A6969&amp;tr=udp%3A%2F%2Fexodus.desync.com%3A6969","seeders":1,"leechers":0,"uploader":"AlienMethod","files":7,"time":1429290636,"description":"x264/mp4\nCinavia Removed/CinExHD\n6-Channel AC3@640kbps (audio 1)\n2-Channel AAC@128kbps (audio 2)\nEnglish Subs Incl.\n\n\n&quot;A hugely talented but socially isolated computer operator is tasked by Management \nto prove the Zero Theorem: that the universe ends as nothing, rendering life \nmeaningless. But meaning is what he already craves.&quot;\n\n\nGeneral\nComplete name : F:TorrentsThe Zero Theorem [2013] (NoCinavia) 1080p\nThe Zero Theorem [2013] (NoCinavia) 1080p.mp4\nFormat : MPEG-4\nFormat profile : Base Media\nCodec ID : isom\nFile size : 3.99 GiB\nDuration : 1h 46mn\nOverall bit rate mode : Variable\nOverall bit rate : 5 363 Kbps\nEncoded date : UTC 2015-04-17 13:41:38\nTagged date : UTC 2015-04-17 13:41:38\nWriting application : My MP4Box GUI 0.6.0.6 \n\nVideo\nID : 1\nFormat : AVC\nFormat/Info : Advanced Video Codec\nFormat profile : &lt;a class=&quot;__cf_email__&quot; href=&quot;/cdn-cgi/l/email-protection&quot; data-cfemail=&quot;420a2b252a020e766c72&quot;&gt;[email&amp;#160;protected]&lt;/a&gt;&lt;script cf-hash='f9e31' type=&quot;text/javascript&quot;&gt;\n/* &lt;![CDATA[ */!function(){try{var t=&quot;currentScript&quot;in document?document.currentScript:function(){for(var t=document.getElementsByTagName(&quot;script&quot;),e=t.length;e--;)if(t[e].getAttribute(&quot;cf-hash&quot;))return t[e]}();if(t&amp;&amp;t.previousSibling){var e,r,n,i,c=t.previousSibling,a=c.getAttribute(&quot;data-cfemail&quot;);if(a){for(e=&quot;&quot;,r=parseInt(a.substr(0,2),16),n=2;a.length-n;n+=2)i=parseInt(a.substr(n,2),16)^r,e+=String.fromCharCode(i);e=document.createTextNode(e),c.parentNode.replaceChild(e,c)}}}catch(u){}}();/* ]]&gt; */&lt;/script&gt;\nFormat settings, CABAC : Yes\nFormat settings, ReFrames : 4 frames\nCodec ID : avc1\nCodec ID/Info : Advanced Video Coding\nDuration : 1h 46mn\nBit rate : 4 597 Kbps\nMaximum bit rate : 30.2 Mbps\nWidth : 1 808 pixels\nHeight : 1 024 pixels\nDisplay aspect ratio : 16:9\nFrame rate mode : Constant\nFrame rate : 23.976 fps\nColor space : YUV\nChroma subsampling : 4:2:0\nBit depth : 8 bits\nScan type : Progressive\nBits/(Pixel*Frame) : 0.104\nStream size : 3.42 GiB (86%)\nTitle : The.Zero.Theorem.2013(encode).h264\nWriting library : x264 core 142 r2479 dd79a61\nEncoded date : UTC 2015-04-17 13:41:38\nTagged date : UTC 2015-04-17 13:41:56\n\nAudio #1\nID : 2\nFormat : AC-3\nFormat/Info : Audio Coding 3\nMode extension : CM (complete main)\nFormat settings, Endianness : Big\nCodec ID : ac-3\nDuration : 1h 46mn\nBit rate mode : Constant\nBit rate : 640 Kbps\nChannel(s) : 6 channels\nChannel positions : Front: L C R, Side: L R, LFE\nSampling rate : 48.0 KHz\nBit depth : 16 bits\nCompression mode : Lossy\nStream size : 487 MiB (12%)\nTitle : zero theorem (CinEx)AC3.ac3\nEncoded date : UTC 2015-04-17 13:41:52\nTagged date : UTC 2015-04-17 13:41:56\n\nAudio #2\nID : 3\nFormat : AAC\nFormat/Info : Advanced Audio Codec\nFormat profile : LC\nCodec ID : 40\nDuration : 1h 46mn\nBit rate mode : Variable\nBit rate : 123 Kbps\nMaximum bit rate : 171 Kbps\nChannel(s) : 2 channels\nChannel positions : Front: L R\nSampling rate : 48.0 KHz\nCompression mode : Lossy\nStream size : 93.3 MiB (2%)\nTitle : zero theorem (CinEx)AAC.m4a\nEncoded date : UTC 2015-04-17 13:41:55\nTagged date : UTC 2015-04-17 13:41:56","torrent":{"xt":"urn:btih:67c5005ef5a9a588eb8997dbd5e985b6361defbe","amp;dn":"The+Zero+Theorem+%5B2013%5D+%28No+Cinavia%29+1080p","amp;tr":["udp%3A%2F%2Ftracker.openbittorrent.com%3A80","udp%3A%2F%2Fopen.demonii.com%3A1337","udp%3A%2F%2Ftracker.coppersurfer.tk%3A6969","udp%3A%2F%2Fexodus.desync.com%3A6969"],"infoHash":"67c5005ef5a9a588eb8997dbd5e985b6361defbe","infoHashBuffer":{"type":"Buffer","data":[103,197,0,94,245,169,165,136,235,137,151,219,213,233,133,182,54,29,239,190]},"announce":[],"urlList":[]}}